<svg xmlns="http://www.w3.org/2000/svg" viewBox="0 0 24 24" fill="none" stroke="currentColor" stroke-width="2" stroke-linecap="round" stroke-linejoin="round">
  <path d="M12 2C6.48 2 2 6.48 2 12c0 4.41 2.87 8.16 6.84 9.49.5.09.68-.22.68-.49 0-.24-.01-.87-.01-1.71-2.79.61-3.39-1.35-3.39-1.35-.45-1.14-1.1-1.44-1.1-1.44-.9-.61.07-.6.07-.6 1 .07 1.53 1.03 1.53 1.03.89 1.53 2.34 1.09 2.91.83.09-.64.35-1.09.64-1.34-2.22-.25-4.56-1.11-4.56-4.93 0-1.09.39-1.98 1.03-2.68-.1-.25-.45-1.27.1-2.65 0 0 .84-.27 2.75 1.02A9.56 9.56 0 0112 4.8c.85.004 1.71.115 2.52.34 1.91-1.29 2.75-1.02 2.75-1.02.55 1.38.2 2.4.1 2.65.64.7 1.03 1.59 1.03 2.68 0 3.83-2.34 4.68-4.56 4.93.36.31.68.93.68 1.87 0 1.35-.01 2.43-.01 2.76 0 .27.18.58.69.48A10.01 10.01 0 0022 12c0-5.52-4.48-10-10-10z"/>
</svg>